<?xml version="1.0" encoding="iso-8859-1"?>
<!-- Generator: Adobe Illustrator 19.0.0, SVG Export Plug-In . SVG Version: 6.00 Build 0)  -->
<svg version="1.1" id="Layer_1" xmlns="http://www.w3.org/2000/svg" xmlns:xlink="http://www.w3.org/1999/xlink" x="0px" y="0px"
	 viewBox="0 0 512 512" style="enable-background:new 0 0 512 512;" xml:space="preserve">
<g>
	<g>
		<path d="M285.72,72.228L213.494,0l-44.051,33.039c-37.924-9.553-79.769,0.497-109.433,30.161L222.521,225.71
			c29.665-29.664,39.714-71.509,30.161-109.433L285.72,72.228z"/>
	</g>
</g>
<g>
	<g>
		<path d="M329.416,435.392H125.127c-42.31,0-76.609,34.299-76.609,76.608h357.506C406.025,469.69,371.726,435.392,329.416,435.392z
			"/>
	</g>
</g>
<g>
	<g>
		<path d="M406.025,199.182c-12.192,0-23.5,3.828-32.81,10.329l-79.562-79.563c1.748,16.998,0.664,34.245-3.248,50.922
			l60.299,60.299c-1.382,4.925-2.135,10.11-2.135,15.47c0,8.86,2.019,17.256,5.614,24.757L238.491,397.087h54.17l88.608-88.608
			c7.5,3.597,15.896,5.615,24.756,5.615c31.683,0,57.456-25.775,57.456-57.456C463.481,224.957,437.708,199.182,406.025,199.182z
			 M406.025,275.791c-10.562,0-19.152-8.592-19.152-19.152s8.59-19.152,19.152-19.152s19.152,8.592,19.152,19.152
			S416.587,275.791,406.025,275.791z"/>
	</g>
</g>
<g>
</g>
<g>
</g>
<g>
</g>
<g>
</g>
<g>
</g>
<g>
</g>
<g>
</g>
<g>
</g>
<g>
</g>
<g>
</g>
<g>
</g>
<g>
</g>
<g>
</g>
<g>
</g>
<g>
</g>
</svg>
